<svg id="Layer_1" data-name="Layer 1" xmlns="http://www.w3.org/2000/svg" viewBox="0 0 408.7 129.85"><defs><style>.cls-1{fill:#fefeff;}.cls-2{fill:#2c2e5b;}.cls-3{fill:#aca18b;}</style></defs><path class="cls-1" d="M466,456a.83.83,0,0,1,.47-.22A.83.83,0,0,0,466,456Z" transform="translate(-68.65 -360.7)"/><path class="cls-1" d="M229.61,455c0-.07,0-.13,0-.2A1.34,1.34,0,0,0,229.61,455Z" transform="translate(-68.65 -360.7)"/><path class="cls-1" d="M372.66,460.19a1.59,1.59,0,0,1-.62.16A1.59,1.59,0,0,0,372.66,460.19Z" transform="translate(-68.65 -360.7)"/><path class="cls-1" d="M245.8,461.06c0,.12,0,.24-.06.36A1.51,1.51,0,0,0,245.8,461.06Z" transform="translate(-68.65 -360.7)"/><path class="cls-1" d="M229.61,457.69l.14,0v0Z" transform="translate(-68.65 -360.7)"/><path class="cls-1" d="M235.52,457.05l.07-.06-1.49-.22c-1.36-.11-1.9.39-2.09,1.15l3.16.33A1.45,1.45,0,0,1,235.52,457.05Z" transform="translate(-68.65 -360.7)"/><path class="cls-1" d="M468,455.74c.42,0,.86-.06,1.28,0-.42,0-.86,0-1.28,0s-1.14-.07-1.62,0C466.9,455.66,467.54,455.8,468,455.74Z" transform="translate(-68.65 -360.7)"/><path class="cls-2" d="M148.52,464.52a56.21,56.21,0,0,1-14,3.76c-8.51.94-17.06.14-25-3.64-2.55-1.21-5.06-1.48-7.41,0-3.84,2.45-7.54,5.11-11.25,7.75-.66.48-1.21.89-2,.53s-.44-1-.46-1.54c-.12-3.74,2-7.25,1.18-11.08-.19-.92.57-1.82.68-2.56.5-3.24.9-6.16-1.5-9.5-5.08-7.1-8.7-15.07-8.46-24.19a3.75,3.75,0,0,0-.66-2.05,5.31,5.31,0,0,1,0-5.35,5.68,5.68,0,0,0,.67-3.21c.23-4.4,1.67-8.45,3.26-12.53,3.75-9.58,10.68-16.47,18.86-22.08A47.28,47.28,0,0,1,123,371.41a43.73,43.73,0,0,1,19.27,2.18c7.19,2.32,13.89,5.43,19.13,11.07,2.68,2.9,6,5.25,7.8,8.91,1.48,2.94,6.85,2.85,8.73-.05,1.21-1.88,1.34-6.33-1-8.15-3.83-3-5.08-8.47-10.06-10.26-5.13-5.43-11.77-8.46-18.42-11.38-2.47-1.08-5.1-2.15-8-1.69-1.13-.44-2.92,1.07-3.47-1.16-3.85,0-7.74.3-11.56-.08-4.6-.46-9,.79-13.36,1.45-6,.9-19.62,9.3-24.37,13.72a59.54,59.54,0,0,0-10.1,12.62C72.5,397,69,406.08,68.75,416.11a83.74,83.74,0,0,0,0,9.24,79.91,79.91,0,0,0,2,10.1c1.26,5.74,4.23,10.61,6.7,15.75a14.22,14.22,0,0,1,1.73,6.26c0,2.68-1.31,5.15-1.13,7.61.33,4.6-2,8.85-1.28,13.4.14.89-.76,1.34-.88,1.94a14,14,0,0,0,0,7.3c1,2.91,6.43,3.75,9.37,1.74,6.16-4.21,12.38-8.33,18.41-12.73,1.8-1.31,2.76-1.51,4.9-.41a20.59,20.59,0,0,0,9.33,2.42c8.32-.09,16.72,1.23,25-1a34.63,34.63,0,0,0,10.38-4.27c2.09-1.38,3-5.12,1.91-7C153.89,464,151.81,463.25,148.52,464.52Z" transform="translate(-68.65 -360.7)"/><path class="cls-2" d="M476.14,435.36c-.12-2.5,0-5,0-7.51q0-20.22,0-40.43c0-2.24-.37-2.35-2.7-2.29-2.57.07-3.68,2.15-4.8,3.65-5.24,7.05-9.82,14.58-15.61,21.24.12,2.09-1.94,2.64-2.86,4-1.22-1.18-2.81-2.16-3.61-3.58-4.21-7.48-10.21-13.69-14.48-21.13-1.58-2.74-4.14-5.08-8-4.15v52.06c2.12,0,4.24,0,6.36,0,2.84,0,2.88,0,2.89-2.63,0-7.12,0-14.24.05-21.37,0-1.23-.81-3,.64-3.54.53-.19,2.57,1.66,2.65,2.69.22,2.66,3.58,2.94,3.61,5.48,3.34,3,4.8,7.43,8,10.57,2.05,2,2.15,2.13,3.66.05,4.29-5.91,8.48-11.88,12.65-17.87.26-.37.07-1.12.84-.86.2.07.34.63.34,1,0,6.16-.05,12.32,0,18.48,0,2.64-.5,5.31.42,7.9,2.68.05,5.36,0,8,.16C475.63,437.32,476.22,436.92,476.14,435.36Z" transform="translate(-68.65 -360.7)"/><path class="cls-2" d="M389.79,401.52c.62.06.74.63.68,1.2-.18,1.8,1.18,3,1.82,4.45,1.16,2.6,3.06,4.94,3.88,7.63,1.89,6.19,5.24,11.71,7.49,17.71,1.37,3.67,3.33,6.07,7.19,4.72,2,0,3.59,0,5.13,0,1.14,0,1-.37.47-1.28-1.23-2.16-2-4.63-3.38-6.66s-1.46-4.39-2.71-6.42A65.18,65.18,0,0,1,407,416.2c-4.2-9.06-9-17.85-12.83-27.06-1.46-3.53-3.23-4.3-6.4-4a3.74,3.74,0,0,1-.58,0c-1-.07-1.45.45-1.28,1.35.26,1.29-.69,2-1.16,3-4.32,9-8.77,17.93-12.77,27.07-1.79,4.08-3.92,8-5.82,12-1.21,2.58-2.28,5.22-3.41,7.83,2.61,1.73,5.51.36,8.24.76,1.77.25,2.56-.79,3.39-2.27,1.51-2.69,2.21-5.65,3.39-8.43,2.73-6.39,6.28-12.4,8.45-19a29.36,29.36,0,0,1,2.82-5.18C389.17,402,389.55,401.49,389.79,401.52Z" transform="translate(-68.65 -360.7)"/><path class="cls-2" d="M237.66,413.16a116.94,116.94,0,0,1,4.68-10.78c.16-.32.34-.63.51-.94a4.4,4.4,0,0,1,.63.75c2.39,4.79,4.49,9.71,6.89,14.49s4.33,9.76,6.33,14.71c.6,1.49,2,2.64,1.84,4.44-.13,1.42.81,1.42,1.83,1.41,2.51,0,5,0,7.52,0s2.6-.08,1.52-2.44c-3.41-7.46-7.62-14.53-10.66-22.17-1.18-3-2.65-5.85-4.07-8.72-1.35-2.72-3.75-5.29-4-8.09-.34-3.59-3.85-5.29-3.92-8.92,0-1.75-2.56-1.73-4.32-1.74-1.46,0-1.93.45-2.69,1.88-5.8,10.87-10.84,22.09-16,33.28-2.3,5-5.56,9.55-7.07,15-.47,1.71-1,2.08,1,1.93,1.15-.08,2.31,0,3.47,0a15.36,15.36,0,0,1,3.46,0c2,.5,2.32-.88,3.1-2.19,2.12-3.55,3.33-7.54,5-11.25C234.35,420.27,236.27,416.81,237.66,413.16Z" transform="translate(-68.65 -360.7)"/><path class="cls-3" d="M182.59,423.2c-3.29-1.6-5-1.48-7.46.84-1.82,1.71-3.76,2.88-6.36,2.8s-5,0-7.17-2.41c-3-3.26-6-3.11-9.69-.25-2,1.53-3.84,2.66-6.43,2.68a10.64,10.64,0,0,1-7-2.58c-3.75-3-5.89-2.82-9.8,0-.31.22-.51.6-.83.8-4.09,2.55-7.55,2.64-11.74-.11a16.28,16.28,0,0,0-2.75-1.73c-3.94-1.6-8.71-.15-9.68,3.85-.33,1.34-1.94,2.29-1.18,4a15.56,15.56,0,0,0,4.57,5.58c1.57,1.3,3.73.75,5.49.46A10.51,10.51,0,0,0,116.8,435c4.22-3.21,6.17-3.32,10.18-.15a10.81,10.81,0,0,0,7.68,2.42c2.36-.12,4-1.42,5.8-2.78,3.45-2.61,5.82-2.49,9.4,0,.62.43,1,1.37,1.66,1.55,3.28.94,6.62,2.78,9.81-.45.84-.85,2.18-1.19,3.26-1.82,3.3-1.95,6.41-1.5,8.88,1.26a6,6,0,0,0,6.06,2.17c1.41-.15,3.06.67,4.19-.93,1-1.35,2.77-2,3.07-3.92C187.45,428.2,185.91,424.82,182.59,423.2Z" transform="translate(-68.65 -360.7)"/><path class="cls-3" d="M182.67,445.55c-2.48,2.3-4.57.5-6.66-.29a20.31,20.31,0,0,1-4.09-2.66c-.45-.32-.73-.81-1.43-.76-3.11.21-6.2-.6-8.88,2.42s-6,2.94-9.34.67c-.47-.31-.76-.92-1.24-1.19-1.86-1.06-3.8-2.88-5.66-2.82-2.1.06-4.16,1.83-6.23,2.87-.16.09-.26.29-.41.4-4.27,3.05-6.14,3.17-10.24.06a10.6,10.6,0,0,0-7.1-2.46c-2.4.07-4.07,1.32-5.94,2.47-2.39,1.47-4.58,3.5-8,1.27-2-1.36-3.94.56-4,3.58s-.1,3.12,3,3.15a30.09,30.09,0,0,0,4,0,7.35,7.35,0,0,1,6.56,2.43c3.19,3.12,6.15,3.19,9.74.24,4.57-3.74,9.35-3.42,13.48-.1,3.74,3,6.05,3,9.78,0,4.15-3.33,8.93-3.63,13.48.1,3.6,2.94,6.56,2.88,9.74-.24a7.37,7.37,0,0,1,6.56-2.43c1.32.16,2.71-.12,4,.06a2.46,2.46,0,0,0,2.71-1.65,4.29,4.29,0,0,0-.38-4.27C185.15,445.08,183.51,444.77,182.67,445.55Z" transform="translate(-68.65 -360.7)"/><path class="cls-3" d="M173.64,406c-2.25-2.82-5-2.56-7.76-2.19-1.68.23-3.22,1.49-4.66,2.72a8.1,8.1,0,0,1-5,1.87c-2,.09-3-1.54-4.44-1.87-2.25-.53-2.94-3.39-5.81-3-2.59.39-4.95.55-7.19,2.31-4.46,3.49-5.79,3.35-10.64-.09a12.84,12.84,0,0,0-6.63-2.22c-2.94-.28-4.62,1.8-6.23,3.1a6.5,6.5,0,0,1-6.76,1.29c-1.28-.47-2.35-1.11-3.58-.49-1.64.81-1.6,2.42-1.48,3.8,0,2.79,0,2.79,2.89,2.83a11.22,11.22,0,0,0,1.16,0c3.84-.27,7.19.31,10.32,3.15,2.62,2.38,6.12,2.17,8.93-.44a8.7,8.7,0,0,1,5.82-2.75,12.46,12.46,0,0,1,7.67,2.53c4.88,3.24,4.71,3,9.8.08.48-.28.75-1,1.25-1.18,3.46-1.33,6.88-3,10.26.46.91.94,2.75.91,3.85,1.74,2.15,1.65,4.05,1.39,6.06-.1.26-.2.86,0,1-.24,2.84-3.68,6.87-3.28,10.82-3.26,3.58,0,3.58,0,3.47-3.21-.13-3.34-1.41-4.32-4.58-3.14S175.75,408.62,173.64,406Z" transform="translate(-68.65 -360.7)"/><path class="cls-2" d="M307.36,437.22c2.1,0,4.87.71,6.13-.34,1.66-1.38.23-4.33.63-6.54.43-2.4-.84-2.42-2.63-2.4-7.13.08-14.25.05-21.38,0-2.6,0-2.63-.05-2.63-2.89,0-10.59,0-21.17,0-31.76,0-2.64.4-5.31-.34-7.93-2.86-.07-5.72-.11-8.58-.23-1.35-.06-1.5.64-1.49,1.76,0,7.89,0,15.78,0,23.68s0,15.78,0,23.67c0,2.92,0,3,3.15,3Q293.78,437.25,307.36,437.22Z" transform="translate(-68.65 -360.7)"/><path class="cls-2" d="M359.22,432.59c0-.58,0-1.15,0-1.73,0-2.83,0-2.87-2.65-2.88-6.74,0-13.48,0-20.22,0-3.72,0-3.74,0-3.74-3.52,0-10.39,0-20.78,0-31.18,0-2.64.44-5.31-.37-7.92-2.67-.06-5.35,0-8-.22-2.05-.16-2,.93-2,2.42,0,7.89,0,15.78,0,23.67q0,11,0,21.95c0,4,0,4.05,3.78,4.05q14.44,0,28.89,0C359.22,437.22,359.22,437.21,359.22,432.59Z" transform="translate(-68.65 -360.7)"/><path class="cls-2" d="M462.21,458.63a14.08,14.08,0,0,0,0-1.72c0-1.91,0-3.82,0-5.74,0-1.05-.58-1.28-1.42-1.21s-2.27-.39-2,1.14c.42,2.47-1,2.58-2.66,2.3a2.52,2.52,0,0,0-2.8,1.48c-.55,1.18-1,2.92-2.1,3-.82,0-.93-2.08-2-3-2.18-1.92-4.17-2.06-6.33-.07-3.12,2.87-3.31,4.07-.92,6.76,1.23,1.39,3,2.77,4.65,2,1.43-.66,3.77-.9,4-3.29.12-1.23.62-1,1.3-.34,1.06,1.11,2.2,2.14,3.23,3.27a2,2,0,0,0,2,.64,43.57,43.57,0,0,0,4.57-1.5C462.85,462,462.07,459.92,462.21,458.63Zm-16.29,2.91c-1.24-.58-2.25-1.22-2.25-2.86a2.86,2.86,0,0,1,2.17-2.9c1.17-.37,2.57,1.54,2.51,3.09A2.72,2.72,0,0,1,445.92,461.54Zm11.83-.08c-1.08.31-4-2.78-3.58-3.71a5.79,5.79,0,0,1,.47-.85,3.26,3.26,0,0,1,.62-.71,2.21,2.21,0,0,1,1.92-.45,2.84,2.84,0,0,1,1.53.53,3,3,0,0,1,1.21,2.35A2.67,2.67,0,0,1,457.75,461.46Z" transform="translate(-68.65 -360.7)"/><path class="cls-2" d="M438.79,451.4a9,9,0,0,0-4.34,4.5c-.06.17,0,.4-.13.52-.6.67-1.38.79-1.93.11-.9-1.12-1.54-2.47-2.49-3.53-.7-.8-1.29-2.13-2.63-1.85-1.72.36-.83,1.86-.88,2.83-.13,2.29,0,4.59-.08,6.88a2.94,2.94,0,0,0,2.68,2.93c.58,0,.88-.5.84-1.19-.05-1.14,0-2.29,0-3.44,0-.33.27-.92.41-.92.67,0,.53.68.77,1.07,1.93,3.06,2.37,3,4-.13.24-.47.34-1,.58-1.48a3.65,3.65,0,0,1,.64-.73,3.22,3.22,0,0,1,.48.94,12,12,0,0,0,.05,1.71c.31,1.06-1.08,3.08,1.28,3,1.79-.07.82-1.76,1-2.72a18.18,18.18,0,0,0,0-2.86h.12C439.07,455.15,438.93,453.27,438.79,451.4Z" transform="translate(-68.65 -360.7)"/><path class="cls-2" d="M375.44,455.05c.07-1.23-.37-1.72-1.61-1.65s-2.71-.11-4,.05c-1.83.22-3.56,2.7-3.63,4.95-.09,2.66.55,3.6,3.09,4.25a9.21,9.21,0,0,0,2.29,0c.57,0,1.39,0,1.44.54s-.72.62-1.3.63c-1.71,0-3.41.08-5.11.21-.16,0-.38.61-.38.94a2,2,0,0,0,.39,1,.64.64,0,0,0,.49.18c7.84-.07,8.72,1.19,8.35-7.06C375.43,457.73,375.37,456.38,375.44,455.05Zm-2.33,3c0,1.34,0,1.93-.45,2.17a1.59,1.59,0,0,1-.62.16c-.36,0-.84,0-1.47,0-1.17,0-2.33.14-2.1-1.67a3,3,0,0,1,3.17-3,2.36,2.36,0,0,1,.86.08C373.42,456.11,373.06,457.18,373.11,458Z" transform="translate(-68.65 -360.7)"/><path class="cls-2" d="M253,453.49c-1.86-.06-2.9-.18-2.6-2.46.2-1.5-1.23-1-2.06-1.07s-1.38.28-1.36,1.27c0,1.72,0,3.44,0,5.15a27.62,27.62,0,0,0,.08,5.15c.23,1.22.61,3.24,2.82,1.25,1.25-1.13,1.89,1.63,3.47,1.09a6.93,6.93,0,0,0,4-6.28A4.62,4.62,0,0,0,253,453.49Zm-.81,8a2.84,2.84,0,0,1-2.89-2.75,2.88,2.88,0,0,1,2.61-3,2.93,2.93,0,0,1,3.18,2.46A2.88,2.88,0,0,1,252.17,461.52Z" transform="translate(-68.65 -360.7)"/><path class="cls-2" d="M409,455c0-.56.12-1.42-.49-1.48a18.66,18.66,0,0,0-5.68,0c-1.12.26-2.19,1.55-2.87,2.64-1.11,1.79.07,6,1.68,6.47,1.22.37,2.65-.53,3.8.52-1.16,1.31-2.8.23-4.09.83-.24.11-.41.61-.42.94s.13.87.35,1c2.51,1,6.5-.14,7.35-2.39.57-1.52.35-3.34.49-5H409Zm-4.65,5.35c-1.59.08-2.44-.15-2.34-2.08.13-2.56,0-2.49,2.38-2.6,1.58-.08,2.66.12,2.29,2C406.73,460.36,406.72,460.28,404.34,460.39Z" transform="translate(-68.65 -360.7)"/><path class="cls-2" d="M315.49,453.43c-4.4-1-6.55.13-8.57,4.23-.29.57-.81.69-.34,1.69,1.67,3.54,2,3.86,6.4,2.6.73-.21.94-.14,1.08.35s.05,1.39-.52,1.45c-1.53.16-3.08,0-4.61.12-.22,0-.52.52-.6.84a1.08,1.08,0,0,0,.61,1.4,9.29,9.29,0,0,0,2.3,0c3.3-.06,5.09-1.87,5.16-5.2,0-1,0-1.93,0-2.89,0-1.16,0-2.32,0-3.47A1,1,0,0,0,315.49,453.43Zm-1.4,4.9c0,2,0,2-2.31,2s-2.24,0-2.37-2.59c-.1-1.94.79-2.13,2.36-2.06C314.15,455.82,314.15,455.74,314.09,458.33Z" transform="translate(-68.65 -360.7)"/><path class="cls-2" d="M245.81,458l-2.27-.18a3.76,3.76,0,0,1-.26,1.75c2.1.54,2.53,1,2.52,1.52A16.77,16.77,0,0,0,245.81,458Z" transform="translate(-68.65 -360.7)"/><path class="cls-2" d="M237.73,458.37a1.74,1.74,0,0,1,.17-1.11c-.85-.09-1.63-.18-2.31-.27l-.07.06a1.45,1.45,0,0,0-.35,1.2c1,.1,1.83.21,2.62.32A1.08,1.08,0,0,1,237.73,458.37Z" transform="translate(-68.65 -360.7)"/><path class="cls-2" d="M243.28,459.54a3.37,3.37,0,0,1-1.35,1.8,5,5,0,0,1-.5.18c-.71.06-3.19-1.9-3.64-2.95-.79-.11-1.67-.22-2.62-.32a4.13,4.13,0,0,0,1.4,2.81c1.84,1.58,1.78,1.77,5.9,1.62.18,0,.43,0,.53.1,2.28,2.34,2.39-.27,2.74-1.36,0-.12,0-.24.06-.36C245.81,460.59,245.38,460.08,243.28,459.54Z" transform="translate(-68.65 -360.7)"/><path class="cls-2" d="M239.57,455.79c1-.61,3.4.56,3.87,1.63a1.44,1.44,0,0,1,.1.37l2.27.18a19.6,19.6,0,0,1,0-2.3c.21-1.68-.31-2.48-2.15-2.28a15.11,15.11,0,0,1-4,0c-2.83-.47-2.72,2.4-4,3.6.68.09,1.46.18,2.31.27A4.24,4.24,0,0,1,239.57,455.79Z" transform="translate(-68.65 -360.7)"/><path class="cls-2" d="M326.93,456.41c-1.31-2.35-3.53-3.49-5.52-2.78s-4,3.55-3.85,5.24c.1,1.38,3.53,4.84,5.25,5,1.1.71,1.58-1.09,2.66-1.16.92-.06,1.42-.36,1.35-1.33s-.91-.9-1.64-1c-1.32-.25-2.88.75-4-.73,1.22-.83,2.59-.24,3.88-.39.57-.07,1.16,0,1.74,0,1.47-.09,1.31-1,.9-2C327.57,456.91,327.12,456.73,326.93,456.41ZM322.5,458c-.78,0-1.51,0-1.48-1.14,0-1.54,1.19-1,2-1.17s1.53,0,1.5,1.15C324.47,458.42,323.34,458,322.5,458Z" transform="translate(-68.65 -360.7)"/><path class="cls-2" d="M411.8,454.84a5.8,5.8,0,0,0-1.71,3.88c0,1.17.72,1.68,1.35,2.36,3,3.27,3,3.22,6.49,1.64.66-.3,1.52-.07,1.48-1.21-.06-1.59-1.25-1.07-2.09-1.13s-1.93,0-2.88-.05c-.27,0-.5-.4-.75-.62.31-.17.62-.47.94-.48,1.54-.05,3.09-.05,4.63,0,1,0,1.35-.45,1.31-1.33C419.68,453.84,414.6,452,411.8,454.84Zm3.26,3.2c-.8,0-1.49-.07-1.45-1.16.05-1.55,1.21-1.07,2-1.13s1.51.08,1.49.36C417.05,458.41,415.9,458,415.06,458Z" transform="translate(-68.65 -360.7)"/><path class="cls-2" d="M349.37,453.43c-2.28,0-4.77,1.67-5.19,3.39-.69,2.83.54,4.24,3,6.22,1.69,1.35,2.82-.49,3.64.07,2.07,1.42,2.68,1,2.61-1.34,0-.95,0-1.91,0-2.87,0-.58,0-1.15,0-1.73C353.32,452.8,354.32,453.47,349.37,453.43Zm1.75,4.6c-.09,2.13-1.34,3.9-2.57,3.44a2.82,2.82,0,0,1-2.08-2.87,2.91,2.91,0,0,1,3.24-2.86C351,455.72,351.21,456.06,351.12,458Z" transform="translate(-68.65 -360.7)"/><path class="cls-2" d="M342.11,460.36c-1.62-.25-3.87.85-4.73-.7-.72-1.32-.15-3.36-.15-5.08,0-.76,0-1.52,0-2.29,0-1.55-1.17-1.12-2-1.17s-1.49.07-1.46,1.17c.05,1.33,0,2.67,0,4,0,.38,0,.76,0,1.14-.4,7.21,1,6.45,6.66,6.39a12.32,12.32,0,0,0,1.72,0c1.05-.16.89-1,.89-1.74S343.18,460.53,342.11,460.36Z" transform="translate(-68.65 -360.7)"/><path class="cls-2" d="M296,453.41a14.25,14.25,0,0,1-1.73,0c-2.82,0-5.18,1.53-5.6,3.57-.69,3.3.76,5.77,4.05,6.84,1.1.36,2.18-1.12,2.3-1,3.27,3.05,2.88.31,2.91-1.79v-2.3a32.86,32.86,0,0,1,0-3.44C298.07,453.73,297.4,453.24,296,453.41Zm-.42,6a2.84,2.84,0,0,1-2.26,2.09c-1.13.13-1.74-.89-2.1-1.58-.75-1.46-.17-2.79,1.13-3.84a3,3,0,0,1,2.66-.27.74.74,0,0,1,.26.1c.5.32.34,1.19.34,1.82A5,5,0,0,1,295.54,459.41Z" transform="translate(-68.65 -360.7)"/><path class="cls-3" d="M422.89,386.09q0,25.11,0,50.22a.89.89,0,0,0,1.14.92V385.17A.89.89,0,0,0,422.89,386.09Z" transform="translate(-68.65 -360.7)"/><path class="cls-2" d="M397.4,459.19a6.29,6.29,0,0,0,0-1.15,19.59,19.59,0,0,1,0-2.3c.18-1.59-.14-2.64-2.08-2.33a12.47,12.47,0,0,1-1.73,0c-3.81.06-5.53,1.78-5.47,5.45,0,1.12-.26,2.36,1,3s2.71,2,3.78,1.74a23.46,23.46,0,0,0,4.05-1.27C398.05,461.91,397.23,460.29,397.4,459.19Zm-4.66,2.29c-1.17.18-2.45-1.76-2.27-3.2a3.05,3.05,0,0,1,3.54-2.56c1.51.16.95,1.26,1.09,2,0,.27,0,.46,0,.64A2.65,2.65,0,0,1,392.74,461.48Z" transform="translate(-68.65 -360.7)"/><path class="cls-2" d="M363.93,458.52c.45-4.2-.9-5.7-4.57-4.46-1.37.47-1.38-.8-2.11-.62-.66-.09-1.43.07-1.45.6-.1,2.67-.07,5.35,0,8,0,.21.52.5.85.58.57.15,1.34,0,1.38-.6a49.33,49.33,0,0,0,0-5.16c0-1.13.71-1.17,1.49-1.15s2-.33,2,1.21c0,1.34,0,2.68,0,4,0,.75-.15,1.62.93,1.69a3.75,3.75,0,0,0,2.16-.26c.72-.46.61-1.31-.07-1.89A2,2,0,0,1,363.93,458.52Z" transform="translate(-68.65 -360.7)"/><path class="cls-2" d="M269.32,456.7c.8.28,1.56.35,1.91-.45s-.27-1.35-.79-2a3.4,3.4,0,0,0-4.2-.72c-1.65.95-3.72,2.26-3.07,4.89a5.11,5.11,0,0,0,4.43,5.37c1,.1,3.85-1.87,3.66-2.55-.49-1.71-1.91-.64-2.89-.9a5.5,5.5,0,0,0-1.15,0,1.93,1.93,0,0,1-1.74-2.64C266,456.27,267.16,455.94,269.32,456.7Z" transform="translate(-68.65 -360.7)"/><path class="cls-2" d="M227.29,461.79a8.51,8.51,0,0,1-.44.74,8.51,8.51,0,0,0,.44-.74c0-.18,0-.37-.08-.55C227.24,461.42,227.26,461.61,227.29,461.79Z" transform="translate(-68.65 -360.7)"/><path class="cls-2" d="M227.21,461.24a1.77,1.77,0,0,0-.15-.51c-1.45-2.86-3-5.66-4.34-8.58-.48-1.06-.84-1.17-1.32-.32-1.83,3.27-3.52,6.62-5.34,9.89-.53.95.26.93.63.92.87,0,1.71.27,2.54-.65,2.2-2.42,3.51-2.3,5.89.28a1.51,1.51,0,0,0,1.56.36.33.33,0,0,0,.17-.1,8.51,8.51,0,0,0,.44-.74C227.26,461.61,227.24,461.42,227.21,461.24Zm-4.8-2.05c-.82-.06-1.89.42-2.09-1.07a3.37,3.37,0,0,1,1.54-3.31l1.94,2.84C223.89,459.08,223.21,459.26,222.41,459.19Z" transform="translate(-68.65 -360.7)"/><path class="cls-2" d="M469.46,454.58c-.95,0-1.91-.05-2.87,0a3.48,3.48,0,0,0-2.72,5.61c1.09,1.45,2.36,3.11,4.58,2.48.68,0,1.26-.05,1.83,0a1,1,0,0,0,1.18-.88,1.42,1.42,0,0,0-.19-1c-.7-.86-.77.35-1.2.42-.72.12-1.44.26-2.16.32s-1-.35-1.06-1,.19-1.23.76-1.28c1.33-.11,2.67,0,4,0a.93.93,0,0,0,1-1C472.63,456.87,470.65,454.62,469.46,454.58Zm.22,3.43a3.89,3.89,0,0,1-1.7,0c-.82-.1-2.08.57-2.26-.88A1.41,1.41,0,0,1,466,456a.83.83,0,0,1,.47-.22c.48-.09,1.12.05,1.62,0s.86-.05,1.28,0a2,2,0,0,1,.42.07c.25.06.48.53.56.86A1.07,1.07,0,0,1,469.68,458Z" transform="translate(-68.65 -360.7)"/><path class="cls-2" d="M385.06,453.78c-.7-.1-.22,2-.36,3.08a17.49,17.49,0,0,0,0,2.29c0,1.53-1.14,1.28-2,1.18s-2.5.8-2.62-1.1c-.11-1.71.05-3.44-.07-5.14,0-.55-.76-.79-1.34-.65-.33.08-.87.35-.88.55-.07,1.9-.12,3.81,0,5.72s1.09,2.81,3.18,3c4.9.35,4.9.35,4.9-4.59a4.81,4.81,0,0,0,0-1.14C385.53,455.84,386.7,454,385.06,453.78Z" transform="translate(-68.65 -360.7)"/><path class="cls-2" d="M260.85,451.37c0-.58-.21-1.43-.59-1.29a4,4,0,0,0-1.58,1.49c1.71,2.25-1.35,4.37-.14,6.11v3.88c0,1.13,1.15,1.42,1.65,2.19a9.26,9.26,0,0,0,1.76-2c.29-.63-.1-1.55.09-2.27C262.82,456.61,260.61,454.17,260.85,451.37Z" transform="translate(-68.65 -360.7)"/><path class="cls-2" d="M234.1,456.77c-4-.63-4.46-1.19-4.49-1.75,0,.89,0,1.78,0,2.67h.14v0l2.26.21C232.2,457.16,232.74,456.66,234.1,456.77Z" transform="translate(-68.65 -360.7)"/><path class="cls-2" d="M229.79,462.24c0,.16.6.4.93.41s.86-.14.95-.36a4.92,4.92,0,0,0,.24-1.63,14.37,14.37,0,0,1,.1-2.74l-2.26-.21C229.75,459.22,229.72,460.73,229.79,462.24Z" transform="translate(-68.65 -360.7)"/><path class="cls-2" d="M234.1,456.77a7.26,7.26,0,0,1,.72.1c1.13.23.51-.76.54-1.13.17-2.12.1-2.25-2.31-1.6a1.17,1.17,0,0,1-1.25-.24c-1.21-.88-2.09-.82-2.18.92,0,.07,0,.13,0,.2C229.64,455.58,230.08,456.14,234.1,456.77Z" transform="translate(-68.65 -360.7)"/><path class="cls-2" d="M303.45,454.19a1.33,1.33,0,0,1-1,.37c-1.58-.18-2.6.14-2.3,2.05a12.06,12.06,0,0,1,0,1.7v2.84c0,.77,0,1.51,1.09,1.54s1.22-.55,1.23-1.4c0-2-.67-4.47,1.75-5.43,1.23-.48,2.27-.65,1.48-2C305.12,452.79,304.17,453.46,303.45,454.19Z" transform="translate(-68.65 -360.7)"/><path class="cls-2" d="M477.05,451.52c0-.16-.61-.38-.94-.38s-.93.23-.94.37c-.05,3.59-.05,7.17,0,10.76,0,.14.61.38.94.38s.92-.22.94-.38c.15-1.69.21-3.39.29-5.06C477.26,455.29,477.2,453.4,477.05,451.52Z" transform="translate(-68.65 -360.7)"/><path class="cls-2" d="M284.27,461.52c-3.72-.09-3.72-.1-3.74-4.06a11,11,0,0,0,0-1.15c-.18-1.66.45-3.39-.37-5-1.85,1.42-.26,3.38-.78,4.82,0,2.11,0,4,0,5.93,0,.14.23.4.36.4,2.08.09,4.16.15,6.24.22.19,0,.41.06.56,0a7.78,7.78,0,0,0,.92-.56c-.3-.19-.59-.52-.91-.55C285.81,461.46,285,461.54,284.27,461.52Z" transform="translate(-68.65 -360.7)"/><path class="cls-3" d="M140.49,362c-.54-2.23-2.33-.72-3.47-1.16C137.57,363.11,139.36,361.6,140.49,362Z" transform="translate(-68.65 -360.7)"/><path class="cls-1" d="M455.26,456.19a3.26,3.26,0,0,0-.62.71A3.26,3.26,0,0,1,455.26,456.19Z" transform="translate(-68.65 -360.7)"/><path class="cls-1" d="M457.18,455.74a2.84,2.84,0,0,1,1.53.53,2.84,2.84,0,0,0-1.53-.53,2.21,2.21,0,0,0-1.92.45A2.21,2.21,0,0,1,457.18,455.74Z" transform="translate(-68.65 -360.7)"/><path class="cls-1" d="M372.5,455.8c.92.31.56,1.38.61,2.22,0,1.34,0,1.93-.45,2.17.45-.24.45-.83.45-2.17C373.06,457.18,373.42,456.11,372.5,455.8Z" transform="translate(-68.65 -360.7)"/><path class="cls-1" d="M237.73,458.37a1.08,1.08,0,0,0,.06.2,45,45,0,0,1,5.49,1,3.76,3.76,0,0,0,.26-1.75c-2.21-.18-4.08-.36-5.64-.53A1.74,1.74,0,0,0,237.73,458.37Z" transform="translate(-68.65 -360.7)"/><path class="cls-1" d="M295.23,455.91c.5.32.34,1.19.34,1.82a5,5,0,0,1,0,1.68,5,5,0,0,0,0-1.68C295.57,457.1,295.73,456.23,295.23,455.91Z" transform="translate(-68.65 -360.7)"/></svg>