<svg id="Layer_1" data-name="Layer 1" xmlns="http://www.w3.org/2000/svg" viewBox="0 0 410.26 223.44"><defs><style>.cls-1{fill:#411a1d;}.cls-2{fill:#fde4bd;}.cls-3{fill:#a26476;}.cls-4{fill:#bb6575;}.cls-5{fill:#fce2bd;}.cls-6{fill:#f9dfbb;}.cls-7{fill:#411b1d;}.cls-8{fill:#bb6675;}.cls-9{fill:#421c1e;}</style></defs><path class="cls-1" d="M280.09,391.1c.21,7.79-.82,14.39-6.23,19.45a32,32,0,0,1-5.21,4c-3,1.87-6.27,3.46-9.36,5.27-8.2,4.78-6.68,2-6.82,11.87-.07,4.68-.14,9.38,0,14.06.16,5.08-1.65,8.69-6.68,10.38-1.31.44-2.54,1.14-3.82,1.69-4.65,2-5,2.61-4.31,7.65.61,4.6,2.65,8.74,4.3,13,2.22,5.71,3.88,11.48,3.55,17.71a24.59,24.59,0,0,1-6.33,15.78c-10.31,11.13-22,20.87-33.47,30.71-12.59,10.8-30.24,10.08-43.37-1.86-8.64-7.86-17.49-15.43-26.36-23-10.84-9.26-13.65-20.89-8.92-34.54,1.63-4.7,3.37-9.37,5-14.07a18.89,18.89,0,0,0,1-4c.51-4.84.08-5.37-4.41-7.35-10.33-4.55-10.58-3.37-10.42-15.73.07-5.09-.1-10.18.06-15.26a4.65,4.65,0,0,0-2.79-4.75c-4.46-2.42-8.8-5.06-13.29-7.43-7.55-4-11.44-10.2-12-18.65a49,49,0,0,1,.66-12.52c1.28-6.52,5.34-11,11-14.16,22.74-12.77,45.45-25.6,68.26-38.25,9.65-5.35,19.67-5.74,29.44-.35,18.3,10.1,36.47,20.43,54.69,30.67,4,2.25,7.88,4.69,12,6.73C276.17,373,281.09,380.72,280.09,391.1Z" transform="translate(-90.13 -326.81)"/><path class="cls-1" d="M441,460c-8.71-2.85-17.26-4.72-25.78-6.73-2-.47-2.51,1.68-3.55,2.73s-1.79,2.31-3.51.78c-1.35-1.2-3.16-1.65-1.68-4.28,3.31-5.89,6.28-12,9.26-18.07,4.74-9.65,12-15,23.11-15.77,19.61-1.34,39.17-3.31,58.74-5.11,2.61-.24,3.33.17,2.51,2.94-2.4,8.11-4.53,16.31-6.79,24.46-.24.9-.25,1.92-1.71,2-11.25.65-22.41,2.61-33.73,2.36-4-.08-7.87-1.18-11.73-2.17-.82-.21-1.91-.75-2.16.63s1,1,1.67,1.19c6.7,1.93,13.42,3.79,20.13,5.69,3.33.94,3.86,1.77,3.16,5.11-1.86,8.88-4.18,17.61-8.25,25.81a10.79,10.79,0,0,1-8.1,6.26c-12.62,2.57-25.4,4-38.19,5.35-14.29,1.46-28.61,2.62-42.91,4.07-2.71.27-3.83-.07-4.1-3.18-1.78-20.56-3.8-41.1-5.71-61.64-1.06-11.32-2-22.64-3.17-33.95-.19-1.88.41-2.6,1.9-3.41,6.39-3.46,12.71-7.07,19.06-10.61,2.72-1.52,2.9-1.38,3.17,1.58q2.86,32.48,5.78,64.95c.42,4.67.86,9.33,1.21,14,.1,1.3.35,2,1.92,1.81,16-1.61,32-2.94,47.73-6.3C439.7,460.43,440.14,460.27,441,460Z" transform="translate(-90.13 -326.81)"/><path class="cls-1" d="M348.33,393.29c-1.21,6.95-2.44,13.9-3.61,20.86-.2,1.16-1,1.36-1.9,1.53-9.88,1.81-19.76,3.6-29.64,5.44-1.23.23-1.72-.09-1.48-1.34,1.42-7.21,2.87-14.42,4.25-21.65.19-1,.67-1.2,1.57-1.36,9.59-1.72,19.18-3.51,28.76-5.27C347.69,391.24,348.73,391.47,348.33,393.29Z" transform="translate(-90.13 -326.81)"/><path class="cls-1" d="M483.31,389.59c-.38-.3-.94-.7-1.46-1.14-4.22-3.67-8.39-7.38-12.66-11-1.2-1-1.18-1.63-.23-2.79,4.06-4.93,8-9.91,12-14.91,1.19-1.49,2.32-1.62,3.75-.33q6.45,5.79,13,11.52c.73.64,1.17,1.14.33,2.12-4.46,5.24-8.86,10.53-13.27,15.82A1.46,1.46,0,0,1,483.31,389.59Z" transform="translate(-90.13 -326.81)"/><path class="cls-2" d="M228.63,452.26c0,6-.06,12,0,17.95a4.48,4.48,0,0,1-1.75,3.8c-10.76,9.36-21.45,18.79-32.21,28.15-6.18,5.39-12.35,5.59-18.55.26-10.81-9.3-21.44-18.8-32.18-28.17a5.18,5.18,0,0,1-1.85-4.19q0-18.1,0-36.2a5.4,5.4,0,0,1,2.08-4.4q19.6-16.87,39.15-33.83c1.31-1.14,2.24-1.22,3.57-.07q20.22,17.55,40.53,35a3.59,3.59,0,0,1,1.19,3.16Q228.62,443,228.63,452.26Z" transform="translate(-90.13 -326.81)"/><path class="cls-3" d="M236.42,493.64a19.94,19.94,0,0,1-7,15.68c-9.84,8.89-19.74,17.72-29.85,26.29-9.06,7.69-20.14,7.31-29.42-.6s-18.64-15.93-28-23.9c-10.38-8.89-9.51-18.17-5.18-28.37.61-1.43,1.2-1.13,2.15-.29C145,487.65,151,492.8,156.94,498c4.73,4.12,9.37,8.35,14.21,12.36,8.81,7.29,21,6.69,29.77-1.16,9.74-8.69,19.65-17.2,29.37-25.92,2.18-1.95,3-1.37,4,1C235.54,487.4,236.59,490.58,236.42,493.64Z" transform="translate(-90.13 -326.81)"/><path class="cls-4" d="M186.84,336.08a20.57,20.57,0,0,1,8.7,2.52c7.28,3.93,14.41,8.13,21.65,12.13,2.08,1.16,1.9,1.91.18,3.38-9.71,8.27-19.34,16.65-29,25-2,1.73-3.52,2.75-6.07.47-9.73-8.7-19.64-17.2-29.55-25.71-1.45-1.24-1.75-1.81.14-2.9,7.78-4.45,15.43-9.15,23.61-12.88A23.57,23.57,0,0,1,186.84,336.08Z" transform="translate(-90.13 -326.81)"/><path class="cls-4" d="M132.71,391.75c0,8.88,0,17.76,0,26.64,0,1.07.55,3.26-1.83,1.93-8.7-4.87-17.37-9.79-26-14.85-3.51-2.07-5.12-5.46-5.22-9.53-.05-1.7.09-3.41-.09-5.09-.75-7,2.45-11.61,8.36-14.83,7.36-4,14.66-8.12,22-12.15,2.71-1.49,2.75-1.44,2.75,1.83Q132.73,378.72,132.71,391.75Z" transform="translate(-90.13 -326.81)"/><path class="cls-4" d="M271.11,393c.57,6.46-2.38,11.64-9.31,15.05-7.22,3.57-14.08,7.87-21.07,11.89-1.89,1.09-2.76,1.1-2.75-1.5q.11-26.49,0-53c0-2.57.73-2.61,2.68-1.49,7.7,4.41,15.47,8.7,23.18,13.11C269.4,380.21,271,383.7,271.11,393Z" transform="translate(-90.13 -326.81)"/><path class="cls-4" d="M228.53,387.84c0,9.37,0,18.74,0,28.11,0,.74.41,1.76-.45,2.17s-1.47-.42-2-.91c-10.5-9-21-18.13-31.48-27.13-1.82-1.57-1.85-2.59,0-4.19,10.58-8.95,21-18,31.57-27,.54-.47,1-1.54,1.91-1s.46,1.44.46,2.2Q228.55,373.95,228.53,387.84Z" transform="translate(-90.13 -326.81)"/><path class="cls-4" d="M142.22,388c0-9.18,0-18.36,0-27.54,0-.82-.53-2,.53-2.41.84-.34,1.4.64,2,1.12,10.53,9,21,18.11,31.57,27.1,2,1.73.74,2.6-.51,3.68-9.88,8.54-19.75,17.11-29.69,25.6-1.07.91-1.94,3-3.44,2.34s-.38-2.73-.4-4.15C142.18,405.19,142.22,396.61,142.22,388Z" transform="translate(-90.13 -326.81)"/><path class="cls-5" d="M127.31,437.86c0-2.28,0-4.57,0-6.85,0-1.35.68-1.58,1.68-1.12,2.28,1.05,4,2.49,3.86,5.4-.15,3.47,0,6.95-.14,10.42-.05,1.17,1,3-.89,3.43s-4.29-1.82-4.47-3.83c0-.2,0-.4,0-.6Z" transform="translate(-90.13 -326.81)"/><path class="cls-6" d="M243.07,438.7c0,2.29,0,4.58,0,6.88,0,.78.14,1.7-.75,2.11-1.26.57-2.72,1.6-3.85,1.35s-.58-2.1-.59-3.22c0-3.79.21-7.59,0-11.36-.13-3,2-3.63,3.94-4.56,1.23-.6,1.2.54,1.21,1.32C243.08,433.71,243.07,436.2,243.07,438.7Z" transform="translate(-90.13 -326.81)"/><path class="cls-1" d="M340.21,440.63c-3.86-5.13-9-6.61-14.44-4.06A15.42,15.42,0,0,0,322,439c-13.63,12.35-21.32,27.85-22.37,46.07-.75,13,8,20.71,20.75,19.4,8.93-.92,16.92-4.16,20.43-13.23,3.58-9.23,5.14-19,5.85-28.47C346.34,454.54,345.06,447.06,340.21,440.63Zm-12.63,34.14-7.8,1.46c-2.11-.32-5.09.31-5.91-1.36s1-4.06,2.17-5.9c2.19-3.46,5.25-5.21,7.7-4.54s5.1,5.46,5.2,8.81C329,474.41,328.33,474.48,327.58,474.77Z" transform="translate(-90.13 -326.81)"/><path class="cls-7" d="M173.46,453.19c0-4.78,0-9.57,0-14.36,0-3.67-1.18-4.86-4.81-5-3.39-.1-6.79-.09-10.18,0-2.13.06-3.05-.66-3-2.94.22-7.09-1.09-6.3,6.38-6.35,2.1,0,4.2,0,6.29.05,9.63.32,14.67,5.44,14.75,15.05,0,6.38.08,12.76,0,19.15-.05,2.22.68,3.08,2.92,2.86,1.68-.17,3.4,0,5.09-.09,1.88-.13,2.77.53,2.74,2.51-.12,8,.92,6.59-6.27,6.71-3.6.06-7.2-.13-10.78.05-2.56.13-3.25-.86-3.17-3.29.17-4.79,0-9.58,0-14.37Z" transform="translate(-90.13 -326.81)"/><path class="cls-8" d="M185.55,483.18h9.26c.59,0,1.49-.18,1.73.13,1.82,2.33.62,5.07.84,7.63.13,1.55-1.2,1.61-2.32,1.61-6.47,0-12.94,0-19.42,0-1.63,0-2.32-.75-2.29-2.38.14-8.42-1-6.9,6.52-7,1.89,0,3.78,0,5.68,0Z" transform="translate(-90.13 -326.81)"/><path class="cls-9" d="M200.66,434.14c-1.89,0-3.79-.11-5.67,0-2.15.15-2.71-.83-2.76-2.8-.15-6.39-.2-6.39,6.2-6.39,2.78,0,5.57.06,8.36,0,1.48,0,2.06.42,2.2,2,.67,7.18.72,7.18-6.54,7.18Z" transform="translate(-90.13 -326.81)"/></svg>